<?xml version="1.0" encoding="UTF-8" standalone="no"?>
<svg
   xmlns:dc="http://purl.org/dc/elements/1.1/"
   xmlns:cc="http://creativecommons.org/ns#"
   xmlns:rdf="http://www.w3.org/1999/02/22-rdf-syntax-ns#"
   xmlns:svg="http://www.w3.org/2000/svg"
   xmlns="http://www.w3.org/2000/svg"
   xmlns:sodipodi="http://sodipodi.sourceforge.net/DTD/sodipodi-0.dtd"
   xmlns:inkscape="http://www.inkscape.org/namespaces/inkscape"
   version="1.1"
   id="svg2"
   xml:space="preserve"
   width="1889.76"
   height="1889.76"
   viewBox="0 0 1889.76 1889.76"
   sodipodi:docname="연세대학교 심볼.ai"><metadata
     id="metadata8"><rdf:RDF><cc:Work
         rdf:about=""><dc:format>image/svg+xml</dc:format><dc:type
           rdf:resource="http://purl.org/dc/dcmitype/StillImage" /></cc:Work></rdf:RDF></metadata><defs
     id="defs6"><clipPath
       clipPathUnits="userSpaceOnUse"
       id="clipPath18"><path
         d="M 0,1417.323 H 1417.323 V 0 H 0 Z"
         id="path16" /></clipPath></defs><sodipodi:namedview
     pagecolor="#ffffff"
     bordercolor="#666666"
     borderopacity="1"
     objecttolerance="10"
     gridtolerance="10"
     guidetolerance="10"
     inkscape:pageopacity="0"
     inkscape:pageshadow="2"
     inkscape:window-width="640"
     inkscape:window-height="480"
     id="namedview4" /><g
     id="g10"
     inkscape:groupmode="layer"
     inkscape:label="연세대학교 심볼"
     transform="matrix(1.3333333,0,0,-1.3333333,0,1889.76)"><g
       id="g12"><g
         id="g14"
         clip-path="url(#clipPath18)"><g
           id="g20"
           transform="translate(18.9287,707.4395)"><path
             d="m 0,0 c 0,-377.222 306.776,-684.117 683.914,-684.117 377.279,0 684.113,306.895 684.113,684.117 0,377.137 -306.834,683.883 -684.113,683.883 C 306.776,683.883 0,377.137 0,0"
             style="fill:#ffffff;fill-opacity:1;fill-rule:nonzero;stroke:none"
             id="path22" /></g><g
           id="g24"
           transform="translate(39.1396,707.4669)"><path
             d="m 0,0 c 0,365.997 297.852,663.706 663.761,663.706 366.108,0 663.847,-297.709 663.847,-663.706 0,-366.112 -297.739,-664.021 -663.847,-664.021 C 297.852,-664.021 0,-366.112 0,0"
             style="fill:#003478;fill-opacity:1;fill-rule:nonzero;stroke:none"
             id="path26" /></g><g
           id="g28"
           transform="translate(702.8696,223.5787)"><path
             d="m 0,0 c -267.105,0 -483.685,216.524 -483.685,483.687 0,267.28 216.58,483.801 483.685,483.801 267.19,0 483.8,-216.521 483.8,-483.801 C 483.8,216.524 267.19,0 0,0"
             style="fill:#ffffff;fill-opacity:1;fill-rule:nonzero;stroke:none"
             id="path30" /></g><g
           id="g32"
           transform="translate(143.4141,550.2496)"><path
             d="m 0,0 c 0,-10.273 8.29,-18.712 18.597,-18.712 10.304,0 18.685,8.439 18.685,18.712 0,10.281 -8.381,18.598 -18.685,18.598 C 8.29,18.598 0,10.281 0,0"
             style="fill:#ffffff;fill-opacity:1;fill-rule:nonzero;stroke:none"
             id="path34" /></g><g
           id="g36"
           transform="translate(1269.3564,547.6002)"><path
             d="m 0,0 c 0,-10.445 -8.438,-18.968 -18.92,-18.968 -10.505,0 -18.882,8.523 -18.882,18.968 0,10.48 8.377,19.004 18.882,19.004 C -8.438,19.004 0,10.48 0,0"
             style="fill:#ffffff;fill-opacity:1;fill-rule:nonzero;stroke:none"
             id="path38" /></g><g
           id="g40"
           transform="translate(197.4512,871.7969)"><path
             d="m 0,0 c -6.651,-20.989 -29.078,-29.883 -54.469,-21.822 -31.525,9.93 -30.519,29.163 -27.236,39.729 2.763,8.347 8.205,15.028 16.065,19.029 10.046,5.21 23.09,5.699 36.735,1.41 C -14.943,33.914 -5.788,27.406 -1.468,19.144 2.62,11.256 1.179,3.742 0,0 m -27.409,58.183 c -13.071,4.143 -25.448,3.568 -35.842,-1.958 -11.459,-5.96 -20.153,-17.244 -24.958,-32.533 -4.636,-14.941 -4.004,-28.96 2.042,-40.592 5.9,-11.372 16.728,-20.239 29.595,-24.355 22.889,-7.256 52.252,0.289 62.76,33.741 4.606,14.451 3.773,28.415 -2.419,40.449 -6.247,11.831 -17.271,20.871 -31.178,25.248"
             style="fill:#ffffff;fill-opacity:1;fill-rule:nonzero;stroke:none"
             id="path42" /></g><g
           id="g44"
           transform="translate(301.4058,1051.3253)"><path
             d="m 0,0 -17.33,16.497 3.454,3.541 c 0,0 5.845,-4.089 7.86,-5.156 9.442,-4.863 16.613,0.462 19.981,3.946 7.024,7.371 5.899,15.919 1.352,20.297 -4.319,4.115 -9.73,6.477 -21.879,4.635 l -7.198,-1.067 c -16.61,-2.417 -27.032,-0.228 -35.006,7.371 -10.508,9.989 -9.444,25.822 2.821,38.662 10.277,10.739 16.092,11.545 16.092,11.545 l 14.94,-14.366 -3.684,-3.884 c 0,0 -3.568,4.635 -9.815,5.237 -3.083,0.346 -7.803,0.058 -12.87,-5.237 -5.73,-6.019 -6.104,-13.071 -1.009,-17.995 3.541,-3.311 7.745,-4.633 21.162,-2.505 0,0 4.232,0.692 4.259,0.72 19.263,2.851 29.221,0.952 38.002,-7.484 C 25.105,50.985 31.409,42.75 28.993,30.285 27.783,23.78 24.442,17.761 18.771,11.918 13.59,6.536 5.384,0.085 0,0"
             style="fill:#ffffff;fill-opacity:1;fill-rule:nonzero;stroke:none"
             id="path46" /></g><g
           id="g48"
           transform="translate(1121.6387,1029.0992)"><path
             d="m 0,0 19.776,13.59 2.766,-4.176 c 0,0 -5.24,-4.837 -6.681,-6.621 -6.736,-8.235 -3.083,-16.265 -0.286,-20.354 5.696,-8.35 14.305,-9.098 19.515,-5.526 4.985,3.396 8.353,8.147 9.101,20.439 l 0.455,7.225 c 1.071,16.786 5.417,26.574 14.458,32.762 12,8.205 27.229,3.831 37.249,-10.824 8.353,-12.265 7.946,-18.107 7.946,-18.107 L 87.111,-3.253 84.091,1.182 c 0,0 5.269,2.475 7.197,8.521 0.918,2.963 1.696,7.571 -2.449,13.675 C 84.15,30.199 77.294,32.041 71.512,28.071 67.451,25.305 65.292,21.42 64.569,7.945 L 64.368,3.599 C 63.22,-15.862 59.219,-25.19 49.2,-32.042 44.646,-35.094 35.321,-39.583 23.605,-34.662 17.558,-32.127 12.377,-27.58 7.77,-20.786 3.568,-14.651 -1.01,-5.268 0,0"
             style="fill:#ffffff;fill-opacity:1;fill-rule:nonzero;stroke:none"
             id="path50" /></g><g
           id="g52"
           transform="translate(374.2432,1176.4698)"><path
             d="M 0,0 C 5.068,3.773 6.478,2.189 10.451,-3.137 L 14.02,-0.458 -1.525,20.384 -5.152,17.707 C -1.151,12.381 0,10.597 -5.094,6.824 L -19.895,-4.231 -39.209,21.537 c 0,0 11.572,8.605 14.566,10.852 6.821,5.094 9.904,1.641 13.734,-3.6 l 3.596,2.709 -11.773,15.718 -49.663,-37.109 2.678,-3.629 c 3.341,2.535 9.557,7.946 14.94,0.805 5.387,-7.225 41.459,-55.447 41.459,-55.447 6.162,-8.262 3.051,-9.642 -2.763,-13.961 l 2.936,-3.858 50.724,37.857 -12.898,17.071 -3.596,-2.675 c 5.611,-7.545 4.575,-12.438 -0.577,-16.323 C 20.728,-32.616 8.235,-41.945 8.235,-41.945 l -22.974,30.778 c 0,0 0,0.058 -0.058,0.084 z"
             style="fill:#ffffff;fill-opacity:1;fill-rule:nonzero;stroke:none"
             id="path54" /></g><g
           id="g56"
           transform="translate(1034.1738,1171.2023)"><path
             d="m 0,0 c 5.24,-3.568 4.207,-5.383 0.462,-10.852 l 3.745,-2.592 14.505,21.679 -3.769,2.473 C 11.259,5.21 9.964,3.514 4.693,7.024 L -10.651,17.36 7.283,44.106 c 0,0 11.952,-8.003 15.089,-10.106 7.052,-4.749 4.778,-8.779 1.149,-14.136 l 3.684,-2.504 10.913,16.381 -51.42,34.43 -2.529,-3.684 c 3.453,-2.362 10.621,-6.419 5.642,-13.845 -4.979,-7.457 -38.489,-57.494 -38.489,-57.494 -5.733,-8.578 -8.037,-6.13 -14.08,-2.1 l -2.706,-4.03 52.624,-35.24 11.806,17.764 -3.744,2.621 c -5.241,-7.831 -10.22,-8.524 -15.576,-4.925 -3.538,2.362 -16.494,11.055 -16.494,11.055 l 21.388,31.926 c 0,0 0.03,0.058 0.085,0.058 z"
             style="fill:#ffffff;fill-opacity:1;fill-rule:nonzero;stroke:none"
             id="path58" /></g><g
           id="g60"
           transform="translate(427.6753,1251.3502)"><path
             d="m 0,0 c -2.793,5.471 -0.231,7.055 6.563,10.539 l -2.07,4 -35.008,-17.935 2.073,-3.972 c 0,0 8.894,6.304 12.551,-0.805 1.784,-3.542 34.057,-66.391 34.057,-66.391 2.823,-5.499 0.058,-7.137 -6.707,-10.594 l 2.071,-3.999 37.686,19.344 -1.957,3.973 C 43.587,-68.776 37.425,-72.892 34.115,-66.329 30.747,-59.852 0,0 0,0"
             style="fill:#ffffff;fill-opacity:1;fill-rule:nonzero;stroke:none"
             id="path62" /></g><g
           id="g64"
           transform="translate(630.3516,1274.6407)"><path
             d="m 0,0 -7.688,38.376 c -1.152,6.104 1.7,6.794 9.183,8.32 l -0.92,4.404 -33.538,-6.763 0.891,-4.319 c 0,0 10.307,3.714 11.861,-4.174 0.316,-1.556 8.149,-40.534 8.149,-40.534 2.618,-13.014 4.201,-23.495 -0.866,-31.124 -4.548,-6.909 -12.031,-9.037 -14.968,-9.672 -4.435,-0.806 -9.703,-1.295 -15.749,1.93 -5.499,2.936 -11.228,8.32 -15.085,27.606 l -8.521,42.35 c -1.182,6.046 1.696,6.851 9.268,8.377 l -0.948,4.405 -38.577,-7.743 0.863,-4.346 c 0,0 10.335,3.626 11.888,-4.177 0.347,-1.753 8.697,-43.097 8.697,-43.097 3.106,-15.776 8.779,-25.536 17.791,-30.889 11.372,-6.825 24.154,-4.231 29.595,-3.195 7.253,1.495 16.554,4.405 24.239,14.308 C 4.261,-28.817 2.851,-14.192 0,0"
             style="fill:#ffffff;fill-opacity:1;fill-rule:nonzero;stroke:none"
             id="path66" /></g><g
           id="g68"
           transform="translate(853.8096,1298.3624)"><path
             d="m 0,0 c 1.386,6.077 4.322,5.587 11.745,3.86 l 1.04,4.375 -38.374,8.897 -0.924,-4.347 c 0,0 10.828,-0.893 9.071,-8.724 -0.894,-3.83 -16.846,-72.664 -16.846,-72.664 -1.41,-6.073 -4.517,-5.499 -11.977,-3.8 l -1.003,-4.377 41.34,-9.557 1.01,4.32 c -6.22,1.38 -13.533,2.216 -11.892,9.356 C -15.144,-65.551 0,0 0,0"
             style="fill:#ffffff;fill-opacity:1;fill-rule:nonzero;stroke:none"
             id="path70" /></g><g
           id="g72"
           transform="translate(1254.8994,965.7061)"><path
             d="m 0,0 c 5.557,2.735 6.997,0.2 10.396,-6.679 l 4.061,1.958 -17.363,35.325 -3.976,-1.958 c 0,0 6.22,-8.982 -1.034,-12.524 -3.537,-1.757 -66.934,-32.962 -66.934,-32.962 -5.587,-2.679 -7.113,0.115 -10.505,6.966 l -4.031,-2.045 18.682,-38.06 4.001,1.988 c -2.821,5.672 -6.852,11.861 -0.286,15.086 C -60.398,-29.625 0,0 0,0"
             style="fill:#ffffff;fill-opacity:1;fill-rule:nonzero;stroke:none"
             id="path74" /></g><g
           id="g76"
           transform="translate(1287.0283,920.2774)"><path
             d="m 0,0 -19.63,-2.821 1.411,-4.951 c 6.529,0.978 11.222,1.352 13.642,-6.852 0.462,-1.526 1.356,-4.551 5.355,-18.196 -10.966,-3.252 -73.815,-21.794 -73.815,-21.794 -5.928,-1.755 -6.998,1.267 -9.156,8.581 l -4.317,-1.238 12.031,-40.738 4.232,1.21 c -1.781,6.131 -4.718,12.955 2.25,15.028 6.504,1.9 64.344,19.001 73.87,21.792 4.031,-13.587 4.955,-16.609 5.387,-18.107 2.413,-8.205 -1.757,-10.451 -7.745,-13.157 l 1.495,-4.951 18.025,8.261 z"
             style="fill:#ffffff;fill-opacity:1;fill-rule:nonzero;stroke:none"
             id="path78" /></g><g
           id="g80"
           transform="translate(1129.9004,1116.36)"><path
             d="m 0,0 c -7.86,-7.977 -14.427,-8.35 -17.618,-7.86 -2.481,0.345 -3.83,1.067 -7.259,4.434 l -6.329,6.278 29.278,29.594 4.286,-4.235 C 7.168,23.463 12.178,12.32 0,0 M 22.342,11.545 C 20.7,20.038 14.913,26.686 9.472,32.042 l -26.403,26.141 -3.107,-3.225 c 0,0 8.779,-6.45 3.167,-12.15 -2.796,-2.848 -52.483,-53.027 -52.483,-53.027 -4.377,-4.406 -6.766,-2.278 -12.208,3.106 l -3.106,-3.28 30.142,-29.74 3.076,3.051 c -4.517,4.493 -10.335,9.041 -5.18,14.281 l 19.892,20.095 8.092,-8.003 -3.514,-21.536 c -1.872,-12.351 -2.505,-19.719 -0.718,-25.506 1.149,-3.8 3.107,-6.594 8.031,-11.515 l 9.095,-8.983 2.912,2.964 -2.134,2.593 c -1.094,1.669 -3.884,5.785 -3.769,15.344 0.171,9.242 1.496,20.814 3.052,35.495 0,0 0.516,4.694 0.693,6.019 14.536,-1.295 23.977,1.268 31.206,8.608 6.62,6.679 6.852,15.141 6.134,18.771"
             style="fill:#ffffff;fill-opacity:1;fill-rule:nonzero;stroke:none"
             id="path82" /></g><g
           id="g84"
           transform="translate(148.0195,769.6534)"><path
             d="m 0,0 c -4.004,0.374 -7.688,0.69 -11.803,2.821 -4.925,2.648 -32.331,22.542 -36.967,27.12 -3.079,2.936 -4.289,4.316 -5.209,6.764 -0.806,1.93 -1.037,3.799 -0.922,5.125 0.116,1.179 0.286,3.425 0.286,3.425 l -4.432,0.462 -2.936,-31.555 4.605,-0.489 c 0,0 0.204,2.392 0.262,3.313 0.084,0.864 1.064,1.584 2.185,1.468 1.583,-0.115 3.514,-0.893 5.815,-2.188 1.815,-1.009 30.519,-20.528 30.519,-20.528 0,0 -33.857,-15.718 -36.966,-16.785 -0.663,-0.316 -2.851,-1.149 -3.831,-1.036 -0.431,0.03 -0.978,0.346 -1.064,0.951 0,0.028 -0.115,0.663 -0.115,0.663 -0.085,0.805 0.115,2.878 0.115,2.878 l -4.346,0.489 -3.225,-35.728 4.347,-0.343 c 0,0 0.289,4.893 2.304,7.799 1.553,2.304 5.009,4.982 9.441,7.399 6.939,3.83 35.583,17.822 37.456,18.454 3.772,1.298 6.45,2.188 12.87,1.584 0,0 12.809,-1.18 20.812,-1.927 8.004,-0.694 7.831,-5.098 7.257,-11.199 l 4.173,-0.435 3.83,42.034 L 30.4,10.91 C 29.768,3.916 29.768,-2.736 20.554,-1.9 11.313,-1.009 0,0 0,0"
             style="fill:#ffffff;fill-opacity:1;fill-rule:nonzero;stroke:none"
             id="path86" /></g><g
           id="g88"
           transform="translate(1258.7295,750.0474)"><path
             d="m 0,0 c 3.915,0.404 7.66,0.806 12.092,-0.605 5.325,-1.611 35.984,-15.977 41.4,-19.576 3.6,-2.389 5.034,-3.483 6.421,-5.756 1.149,-1.7 1.726,-3.484 1.842,-4.868 0.115,-1.121 0.346,-3.367 0.346,-3.367 l 4.462,0.404 -3.051,31.552 -4.609,-0.404 c 0,0 0.261,-2.417 0.317,-3.283 0.085,-0.863 -0.694,-1.784 -1.813,-1.87 -1.586,-0.173 -3.629,0.201 -6.134,1.007 -1.957,0.72 -33.856,14.48 -33.856,14.48 0,0 30.288,21.765 33.108,23.407 0.663,0.431 2.675,1.641 3.63,1.726 0.432,0.115 1.003,-0.143 1.204,-0.717 0.031,-0.031 0.231,-0.606 0.231,-0.606 0.262,-0.808 0.431,-2.935 0.431,-2.935 l 4.378,0.489 -3.539,35.583 -4.377,-0.462 c 0,0 0.633,-4.922 -0.778,-8.147 -1.094,-2.505 -4,-5.787 -7.86,-8.982 C 37.74,42.033 12.207,22.859 10.511,21.907 7.052,19.922 4.608,18.539 -1.788,17.934 c 0,0 -12.809,-1.295 -20.785,-2.042 -8.031,-0.864 -8.694,3.511 -9.265,9.702 l -4.231,-0.462 4.201,-41.944 4,0.4 c -0.694,7.056 -1.928,13.503 7.344,14.37 C -11.368,-1.094 0,0 0,0"
             style="fill:#ffffff;fill-opacity:1;fill-rule:nonzero;stroke:none"
             id="path90" /></g><g
           id="g92"
           transform="translate(277.0791,1016.7486)"><path
             d="m 0,0 -3.337,-5.468 -92.472,-20.844 45.17,-27.925 c 9.588,-5.904 12.813,1.553 16.093,6.879 l 3.887,-2.39 -18.712,-30.285 -3.888,2.389 c 2.967,4.752 6.508,9.384 -2.59,14.971 -9.097,5.615 -69.526,42.924 -69.526,42.924 l 3.14,5.098 c 15.775,3.483 91.318,20.034 93.765,20.581 0,0 -38.522,23.81 -46.927,28.963 -8.292,5.125 -11.976,-1.7 -14.512,-5.815 l -3.826,2.362 17.271,27.953 3.888,-2.42 c -2.763,-4.432 -5.873,-8.551 2.42,-13.672 C -61.81,38.176 0,0 0,0"
             style="fill:#ffffff;fill-opacity:1;fill-rule:nonzero;stroke:none"
             id="path94" /></g><g
           id="g96"
           transform="translate(764.3076,1228.0905)"><path
             d="m 0,0 -6.419,0.344 -62.071,71.627 -3.225,-52.97 c -0.69,-11.229 7.371,-10.596 13.703,-10.94 l -0.286,-4.519 -35.583,2.1 0.259,4.605 c 5.641,-0.373 11.371,-1.295 11.976,9.356 0.663,10.712 4.979,81.531 4.979,81.531 l 5.93,-0.373 c 10.539,-12.236 60.858,-70.935 62.476,-72.835 0,0 2.759,45.198 3.337,54.958 0.602,9.787 -7.113,9.815 -11.945,10.134 l 0.23,4.462 32.786,-1.987 -0.285,-4.606 C 10.652,91.231 5.581,92.067 4.979,82.279 4.402,72.549 0,0 0,0"
             style="fill:#ffffff;fill-opacity:1;fill-rule:nonzero;stroke:none"
             id="path98" /></g><g
           id="g100"
           transform="translate(993.8428,1252.0709)"><path
             d="m 0,0 1.125,4.492 -28.707,12.552 -1.842,-4.174 3.367,-1.468 c 1.095,-0.462 1.958,-1.411 1.703,-2.477 -0.376,-1.584 -1.988,-3.542 -3.575,-5.469 l -26.713,-26.92 c 0,0 -15.173,-15.086 -17.301,-17.186 0.115,2.504 1.78,36.908 2.534,51.879 l 0.748,13.24 c 0.116,0.694 0.024,2.536 0.888,3.399 0.261,0.374 1.417,1.009 3.051,0.316 l 3.368,-1.411 1.789,4.174 -33.426,14.539 -1.757,-4 c 0,0 4.639,-1.873 6.335,-4.463 1.295,-2.045 1.902,-5.845 1.726,-10.25 l -1.41,-89.649 3.714,-1.639 50.898,46.866 18.256,16.527 c 0,0 6.013,5.295 12.092,2.505 z"
             style="fill:#ffffff;fill-opacity:1;fill-rule:nonzero;stroke:none"
             id="path102" /></g><g
           id="g104"
           transform="translate(734.2822,185.8131)"><path
             d="M 0,0 V -29.394 H -7.83 V 0 h -19.953 v -2.365 c 1.985,0 3.885,-3.422 3.885,-7.022 v -63.51 h -41.313 v 56.86 h 27.467 v 13.356 h -48.569 v -2.388 c 1.958,0 3.916,-3.339 3.916,-6.998 v -74.248 h 58.499 v -21.242 H -7.83 V -42.78 H 0 v -64.777 H 17.21 L 17.21,0 Z"
             style="fill:#ffffff;fill-opacity:1;fill-rule:nonzero;stroke:none"
             id="path106" /></g><g
           id="g108"
           transform="translate(1199.2783,348.1217)"><path
             d="m 0,0 c -13.788,11.46 -65.463,54.325 -66.211,54.903 h -0.03 c 0,0 -53.262,-64.144 -54.01,-65.123 0.778,-0.601 9.472,-7.83 10.28,-8.548 0.718,0.98 43.037,51.907 43.037,51.907 0,0 43.389,-36.014 55.852,-46.38 -4.633,-5.702 -8.378,-10.22 -8.378,-10.22 0,0 -28.3,23.406 -29.132,24.185 -0.723,-0.895 -9.874,-11.892 -10.536,-12.67 0.833,-0.748 29.133,-24.184 29.133,-24.184 l -5.673,-6.766 c 0,0 -28.214,23.381 -29.107,24.128 -0.688,-0.837 -11.516,-13.963 -12.233,-14.772 0.487,-0.401 1.265,-1.119 1.781,-1.495 h 0.061 c 1.265,1.556 5.126,0.778 7.886,-1.466 l 21.88,-18.141 c 0,0 -11.6,-14.049 -12.348,-14.852 0.803,-0.662 9.526,-7.945 10.365,-8.609 0.717,0.918 63.652,76.753 64.369,77.617 C 16.153,0.115 7.43,7.399 6.621,8.122 6.396,7.775 3.66,4.407 0,0"
             style="fill:#ffffff;fill-opacity:1;fill-rule:nonzero;stroke:none"
             id="path110" /></g><g
           id="g112"
           transform="translate(499.2456,226.3453)"><path
             d="m 0,0 c -0.462,-1.125 -44.45,-96.699 -44.939,-97.824 0.979,-0.377 14.682,-6.767 15.718,-7.144 0.374,1.071 44.45,96.675 44.939,97.77 H 15.633 C 15.633,-7.198 1.064,-0.433 0,0"
             style="fill:#ffffff;fill-opacity:1;fill-rule:nonzero;stroke:none"
             id="path114" /></g><g
           id="g116"
           transform="translate(475.4385,237.3121)"><path
             d="m 0,0 c -0.319,-0.602 -0.75,-1.58 -1.067,-2.188 h 0.058 c 1.842,-0.833 2.1,-4.718 0.605,-8.032 l -8.35,-18.134 c 0,0 -15.372,7.021 -16.381,7.513 -0.459,-0.947 -5.153,-11.259 -5.642,-12.177 1.006,-0.431 16.411,-7.544 16.411,-7.544 0,0 -26.603,-57.779 -27.062,-58.842 0.978,-0.377 12.925,-5.989 13.876,-6.42 0.459,1.063 44.449,96.784 44.939,97.793 l -0.03,0.061 C 17.357,-7.97 1.006,-0.456 0,0"
             style="fill:#ffffff;fill-opacity:1;fill-rule:nonzero;stroke:none"
             id="path118" /></g><g
           id="g120"
           transform="translate(430.439,207.231)"><path
             d="M 0,0 -0.517,1.034 -0.144,1.38 C 11.861,10.476 20.731,21.588 27.062,35.321 26.114,35.814 5.355,45.311 4.404,45.772 4.146,45.225 3.657,44.161 3.426,43.614 3.657,43.443 7.86,40.16 4.204,32.27 V 32.185 C 3.973,31.692 -8.205,5.21 -44.651,-6.736 c 0.402,-1.039 3.773,-9.472 4.059,-10.28 h 0.057 c 0.146,0 12.208,1.471 28.674,10.766 l 0.547,0.316 0.261,-0.546 c 2.448,-5.065 6.189,-12.694 9.731,-32.385 1.468,0.833 13.414,7.63 14.107,8 C 10.854,-22.688 6.361,-11.722 0,0"
             style="fill:#ffffff;fill-opacity:1;fill-rule:nonzero;stroke:none"
             id="path122" /></g><g
           id="g124"
           transform="translate(925.498,142.2545)"><path
             d="m 0,0 c 1.003,0.486 64.977,31.176 64.977,31.176 0,0 9.526,-19.923 9.988,-20.956 1.034,0.486 14.597,7.082 15.606,7.483 C 90.078,18.712 75.251,49.718 74.704,50.751 73.609,50.234 -4.778,12.578 -5.903,12.092 -5.417,11.113 -0.517,0.894 0,0"
             style="fill:#ffffff;fill-opacity:1;fill-rule:nonzero;stroke:none"
             id="path126" /></g><g
           id="g128"
           transform="translate(969.5127,256.9488)"><path
             d="m 0,0 c -1.003,-0.517 -18.104,-8.725 -19.083,-9.21 0.255,-0.523 0.748,-1.502 1.033,-2.135 v 0.032 c 1.812,0.917 4.98,-1.412 6.535,-4.694 0,0 22.197,-46.095 22.714,-47.158 0.924,0.517 14.572,7.027 15.46,7.514 -0.457,0.954 -8.463,17.648 -8.463,17.648 0,0 14.335,6.821 15.344,7.253 -0.462,1.04 -4.809,10.08 -5.265,10.974 C 27.297,-20.238 13.071,-27.15 13.071,-27.15 13.071,-27.15 0.492,-1.009 0,0"
             style="fill:#ffffff;fill-opacity:1;fill-rule:nonzero;stroke:none"
             id="path130" /></g><g
           id="g132"
           transform="translate(933.1523,181.9224)"><path
             d="m 0,0 c -7.483,-3.599 -16.664,-0.2 -20.378,7.575 -3.715,7.8 -0.663,17.01 6.82,20.639 7.515,3.599 16.67,0.171 20.385,-7.568 C 10.511,12.84 7.489,3.569 0,0 m -34.373,0.863 c 6.42,-13.471 24.068,-18.451 39.327,-11.168 15.23,7.315 22.312,24.184 15.892,37.711 C 17.563,34.173 11.404,38.835 4.121,40.769 10.827,43.936 15.405,46.21 15.66,46.38 15.204,47.305 10.365,57.493 9.934,58.472 8.9,57.955 -11.831,47.991 -11.831,47.991 c 0,0 -3.514,7.259 -3.945,8.207 0,0 -18.08,-8.608 -19.059,-9.126 0.231,-0.607 0.723,-1.555 1.009,-2.187 v 0.054 c 1.587,0.693 4.292,-1.003 6.018,-3.854 l 0.347,-0.608 c 0,0 -22.196,-10.59 -23.266,-11.138 0.493,-0.924 5.356,-11.112 5.818,-12.062 0.316,0.086 4.493,2.128 10.536,5.01 -3.052,-6.857 -3.283,-14.597 0,-21.424"
             style="fill:#ffffff;fill-opacity:1;fill-rule:nonzero;stroke:none"
             id="path134" /></g><g
           id="g136"
           transform="translate(237.6689,340.608)"><path
             d="m 0,0 v 0 c 0,0 -13.186,15.174 -13.934,15.977 -0.462,-0.402 -1.325,-1.12 -1.787,-1.581 h 0.03 c 1.295,-1.527 -0.03,-5.18 -2.705,-7.545 0,0 -18.454,-16.006 -19.202,-16.755 0.69,-0.833 53.344,-61.232 54.065,-62.125 0.835,0.748 9.356,8.176 10.161,8.808 -0.805,0.924 -42.808,49.117 -42.808,49.117 0,0 15.345,13.386 16.18,14.104"
             style="fill:#ffffff;fill-opacity:1;fill-rule:nonzero;stroke:none"
             id="path138" /></g><g
           id="g140"
           transform="translate(255.0288,380.0816)"><path
             d="M 0,0 C 7.226,6.243 17.704,5.957 23.549,-0.724 29.336,-7.375 28.242,-17.91 20.986,-24.13 13.846,-30.373 3.223,-30.087 -2.535,-23.467 -8.35,-16.755 -7.198,-6.305 0,0 m 47.07,-44.97 -7.055,-6.134 c 0,0 -5.958,6.882 -10.94,12.584 0.921,0.603 1.842,1.265 2.678,2.074 1.557,1.319 2.879,2.759 4.031,4.371 C 40.65,-37.687 47.07,-44.97 47.07,-44.97 m -31.697,1.727 c 4.923,-5.642 14.507,-16.67 14.507,-16.67 0,0 -20.18,-17.703 -21.043,-18.427 0.72,-0.833 10.709,-12.232 11.344,-12.955 0.891,0.693 57.694,50.325 58.527,51.043 -0.721,0.863 -13.156,15.144 -13.904,16.007 -0.462,-0.432 -1.325,-1.118 -1.784,-1.642 1.322,-1.465 0,-5.149 -2.767,-7.538 l -3.051,-2.705 c 0,0 -13.01,14.852 -15.977,18.22 0.893,8.693 -1.872,17.965 -8.292,25.393 -11.746,13.417 -31.294,15.545 -43.672,4.748 -12.35,-10.736 -12.898,-30.488 -1.179,-43.814 7.252,-8.378 17.587,-12.438 27.291,-11.66"
             style="fill:#ffffff;fill-opacity:1;fill-rule:nonzero;stroke:none"
             id="path142" /></g><g
           id="g144"
           transform="translate(702.8696,939.6797)"><path
             d="m 0,0 c -39.297,0 -71.136,-31.838 -71.136,-71.05 0,-39.24 31.839,-71.081 71.136,-71.081 39.181,0 71.081,31.841 71.081,71.081 C 71.081,-31.838 39.181,0 0,0"
             style="fill:#003478;fill-opacity:1;fill-rule:nonzero;stroke:none"
             id="path146" /></g><g
           id="g148"
           transform="translate(531.144,358.4566)"><path
             d="m 0,0 c 44.565,-38.774 100.703,-75.658 171.784,-108.39 71.083,32.732 127.22,69.616 171.813,108.42 L 171.814,172.133 Z"
             style="fill:#003478;fill-opacity:1;fill-rule:nonzero;stroke:none"
             id="path150" /></g><g
           id="g152"
           transform="translate(702.9004,729.8668)"><path
             d="m 0,0 c -76.78,0 -138.994,62.126 -138.994,138.821 0,76.607 62.214,138.735 138.994,138.735 76.867,0 139.078,-62.128 139.078,-138.735 C 139.078,62.126 76.867,0 0,0 m 349.639,38.289 v 237.31 c 0,0 -202.299,-6.478 -349.612,106.778 C -147.256,269.121 -349.585,275.599 -349.585,275.599 V 38.289 c 0,0 -1.356,-50.897 7.514,-106.603 110.721,20.323 224.984,31.089 342.129,31.089 117.087,0 231.349,-10.766 342.097,-31.089 8.84,55.706 7.484,106.603 7.484,106.603"
             style="fill:#003478;fill-opacity:1;fill-rule:nonzero;stroke:none"
             id="path154" /></g><g
           id="g156"
           transform="translate(364.4253,641.6295)"><path
             d="M 0,0 C 1.499,-7.397 3.197,-14.772 5.155,-22.056 21.536,-84.729 50.899,-157.049 110.782,-226.944 L 338.533,1.211 566.252,-226.944 c 59.852,69.895 89.247,142.215 105.655,204.888 1.933,7.284 3.599,14.659 5.125,22.056 C 567.432,20.147 454.294,30.774 338.533,30.774 222.714,30.774 109.6,20.147 0,0"
             style="fill:#003478;fill-opacity:1;fill-rule:nonzero;stroke:none"
             id="path158" /></g><g
           id="g160"
           transform="translate(465.5352,813.0665)"><path
             d="m 0,0 h 32.762 c 1.092,0 1.985,0.921 1.985,2.073 v 67.108 c 0,1.122 -0.893,2.043 -1.985,2.043 H 6.216 c -4.548,0 -8.234,-3.658 -8.234,-8.232 V 2.073 C -2.018,0.921 -1.094,0 0,0"
             style="fill:#ffffff;fill-opacity:1;fill-rule:nonzero;stroke:none"
             id="path162" /></g><g
           id="g164"
           transform="translate(420.25,813.0665)"><path
             d="m 0,0 h 32.704 c 1.122,0 2.015,0.921 2.015,2.073 v 60.919 c 0,4.574 -3.657,8.232 -8.207,8.232 L 0,71.224 c -1.125,0 -2.016,-0.921 -2.016,-2.043 V 2.073 C -2.016,0.921 -1.125,0 0,0"
             style="fill:#ffffff;fill-opacity:1;fill-rule:nonzero;stroke:none"
             id="path166" /></g><g
           id="g168"
           transform="translate(515.5415,872.6299)"><path
             d="m 0,0 h -6.94 v -66.646 h -41.371 l -0.057,-0.69 c -0.374,-4.061 -3.827,-7.255 -7.915,-7.255 -4.062,0 -7.572,3.194 -7.888,7.255 l -0.089,0.69 h -41.398 V 0 h -6.908 c -1.095,0 -2.016,-0.949 -2.016,-2.042 v -70.65 c 0,-1.121 0.921,-2.042 2.016,-2.042 h 41.485 c 2.879,-5.241 8.405,-8.809 14.798,-8.809 6.389,0 11.976,3.568 14.797,8.809 H 0 c 1.122,0 2.042,0.921 2.042,2.042 v 70.65 C 2.042,-0.949 1.122,0 0,0"
             style="fill:#ffffff;fill-opacity:1;fill-rule:nonzero;stroke:none"
             id="path170" /></g><g
           id="g172"
           transform="translate(956.5889,820.438)"><path
             d="m 0,0 h -27.005 c -1.441,0 -2.506,-1.009 -2.305,-2.393 l 8.81,-56.425 c 0.347,-2.274 2.279,-4.174 4.724,-4.174 h 4.577 c 2.45,0 4.378,1.9 4.693,4.174 l 8.84,56.425 C 2.534,-1.009 1.471,0 0,0"
             style="fill:#ffffff;fill-opacity:1;fill-rule:nonzero;stroke:none"
             id="path174" /></g><g
           id="g176"
           transform="translate(960.5039,845.1968)"><path
             d="m 0,0 c 6.997,6.073 23.144,23.865 21.417,33.798 -1.842,10.852 -31.983,26.342 -33.71,38.145 -0.979,5.296 1.064,12.637 3.915,18.339 0.377,1.094 -0.693,1.295 -1.842,0.431 -0.547,-0.462 -25.133,-18.827 -25.333,-31.551 -0.06,-5.01 3.484,-10.567 9.527,-15.576 4.893,-4.088 11.343,-7.775 16.353,-12.724 2.36,-2.304 4.347,-4.378 5.557,-8.034 C -1.673,16.034 -8.579,5.152 -12.87,0 h -9.813 c 4.025,4.778 8.287,11.109 9.927,17.359 4.007,15.199 -33.971,19.029 -28.299,41.973 h -0.024 c 0.316,0.835 -0.639,1.182 -1.557,0.489 C -43.037,59.535 -57.664,45.313 -57.779,35.379 -57.895,26.831 -40.423,18.885 -32.27,7.31 -30.86,4.835 -31.206,2.301 -32.301,0 h -15.52 c 0,0 -3.623,0.458 -2.098,-3.052 l 4.171,-13.071 c 0,0 0.754,-1.757 3.283,-1.757 H 7.459 c 2.59,0 3.337,1.757 3.337,1.757 l 4.348,13.214 C 16.237,0.258 12.693,0 12.693,0 Z"
             style="fill:#ffffff;fill-opacity:1;fill-rule:nonzero;stroke:none"
             id="path178" /></g><g
           id="g180"
           transform="translate(635.0723,396.7447)"><path
             d="m 0,0 c -2.475,-1.781 -15.314,-10.244 -15.691,-10.505 -0.833,-0.401 -1.207,-1.149 -1.207,-1.788 0,-0.978 0.66,-1.695 1.468,-1.695 l 1.21,0.345 2.128,0.95 c 1.526,0.662 4.751,2.133 5.413,2.188 0.143,-0.201 0.173,-1.44 0.173,-1.44 v -8.95 -10.943 l -0.203,-15.345 c -0.228,-2.073 -0.517,-2.449 -1.958,-2.79 l -5.295,-0.377 c -0.778,0 -1.468,-0.662 -1.468,-1.726 0,-0.717 0.316,-1.526 2.101,-1.526 l 8.292,0.116 h 3.395 2.937 l 8.492,-0.116 c 1.73,0 2.016,0.809 2.016,1.526 0,1.064 -0.748,1.726 -1.496,1.726 l -4.347,0.377 c -1.41,0.317 -1.814,0.717 -1.899,2.79 l -0.347,15.345 v 12.67 l 0.347,16.87 v 0.979 C 4.061,0.87 2.82,1.04 2.419,1.04 Z"
             style="fill:#ffffff;fill-opacity:1;fill-rule:nonzero;stroke:none"
             id="path182" /></g><g
           id="g184"
           transform="translate(667.2871,385.8385)"><path
             d="m 0,0 c 0,3.307 1.873,7.167 7.313,7.167 3.225,0 6.563,-2.334 6.563,-7.313 0,-5.294 -3.022,-8.061 -5.672,-9.241 C 2.073,-5.934 0,-3.514 0,0 m -9.183,-1.387 c 0,-6.419 4.778,-10.188 8.982,-12.608 -7.341,-3.337 -11.66,-8.863 -11.66,-15.198 0,-9.01 7.198,-14.452 18.195,-14.452 12.694,0 19.26,8.032 19.26,16.093 0,8.317 -6.621,12.67 -11.402,15.344 3.052,1.466 9.04,5.356 9.04,12.64 0,7.106 -6.046,11.514 -15.055,11.514 -12.755,0 -17.36,-8.007 -17.36,-13.333 m 7.082,-27.46 c 0,6.652 4.259,10.335 7.11,12.147 5.672,-3.338 10.566,-6.36 10.566,-12.463 0,-5.587 -3.511,-9.387 -8.694,-9.387 -5.067,0 -8.982,4.177 -8.982,9.703"
             style="fill:#ffffff;fill-opacity:1;fill-rule:nonzero;stroke:none"
             id="path186" /></g><g
           id="g188"
           transform="translate(714.6758,385.8385)"><path
             d="m 0,0 c 0,3.307 1.957,7.167 7.368,7.167 3.253,0 6.567,-2.334 6.567,-7.313 0,-5.294 -2.998,-8.061 -5.734,-9.241 C 2.213,-5.934 0,-3.514 0,0 m -9.098,-1.387 c 0,-6.419 4.721,-10.188 8.922,-12.608 -7.253,-3.337 -11.657,-8.863 -11.657,-15.198 0,-9.01 7.255,-14.452 18.308,-14.452 12.584,0 19.144,8.032 19.144,16.093 0,8.317 -6.736,12.67 -11.43,15.344 3.252,1.466 8.986,5.356 8.986,12.64 0,7.106 -5.934,11.514 -15.029,11.514 -12.638,0 -17.244,-8.007 -17.244,-13.333 m 7.049,-27.46 c 0,6.652 4.262,10.335 7.059,12.147 5.788,-3.338 10.62,-6.36 10.62,-12.463 0,-5.587 -3.568,-9.387 -8.693,-9.387 -4.98,0 -8.986,4.177 -8.986,9.703"
             style="fill:#ffffff;fill-opacity:1;fill-rule:nonzero;stroke:none"
             id="path190" /></g><g
           id="g192"
           transform="translate(778.5889,396.9752)"><path
             d="m 0,0 -4.407,-0.315 h -16.817 c -1.841,0 -2.213,-1.094 -2.213,-1.697 l -1.702,-18.165 c 0,-0.723 0.146,-2.073 2.165,-2.42 4.632,-0.601 16.524,-4.577 16.524,-15.344 0,-8.547 -5.617,-11.545 -10.397,-11.545 -5.61,0 -8.377,2.736 -8.377,8.177 0,1.958 -0.893,2.159 -1.526,2.159 -1.294,0 -1.756,-1.527 -1.78,-1.989 0,-0.115 -0.232,-7.83 -0.232,-7.83 v -0.979 c 0,-1.465 0.085,-2.675 1.757,-3.599 h 0.085 c 1.696,-0.718 4.378,-1.234 6.906,-1.234 16.208,0 23.522,10.505 23.522,20.238 0,11.716 -11.515,17.88 -22.597,19.893 0.115,1.295 0.547,5.355 0.747,6.681 h 11.63 c 4.955,0 4.955,-1.471 4.955,-2.821 0,-1.733 1.38,-1.817 1.611,-1.817 0.863,0 1.556,0.545 1.641,1.47 l 0.979,8.98 c 0,0.748 0,2.335 -1.641,2.335 z"
             style="fill:#ffffff;fill-opacity:1;fill-rule:nonzero;stroke:none"
             id="path194" /></g><g
           id="g196"
           transform="translate(475.2075,414.6852)"><path
             d="M 0,0 C 16.266,-19.004 34.805,-37.832 55.937,-56.229 L 227.75,115.904 399.534,-56.198 C 420.666,-37.832 439.177,-19.004 455.47,0 L 227.75,228.155 Z"
             style="fill:#ffffff;fill-opacity:1;fill-rule:nonzero;stroke:none"
             id="path198" /></g><g
           id="g200"
           transform="translate(702.958,692.6422)"><path
             d="m 0,0 c -117.145,0 -231.407,-10.767 -342.129,-31.09 1.064,-6.596 2.244,-13.247 3.596,-19.923 109.6,20.148 222.714,30.775 338.533,30.775 115.762,0 228.899,-10.627 338.499,-30.775 1.355,6.676 2.535,13.327 3.599,19.923 C 231.35,-10.767 117.087,0 0,0"
             style="fill:#ffffff;fill-opacity:1;fill-rule:nonzero;stroke:none"
             id="path202" /></g><g
           id="g204"
           transform="translate(702.8696,797.5489)"><path
             d="m 0,0 c -39.297,0 -71.136,31.841 -71.136,71.081 0,39.211 31.839,71.05 71.136,71.05 39.181,0 71.081,-31.839 71.081,-71.05 C 71.081,31.841 39.181,0 0,0 m 139.109,71.139 c 0,76.607 -62.211,138.735 -139.078,138.735 -76.781,0 -138.994,-62.128 -138.994,-138.735 0,-76.695 62.213,-138.821 138.994,-138.821 76.867,0 139.078,62.126 139.078,138.821"
             style="fill:#ffffff;fill-opacity:1;fill-rule:nonzero;stroke:none"
             id="path206" /></g></g></g></g></svg>
